<svg data-v-0dd9719b="" version="1.0" xmlns="http://www.w3.org/2000/svg" xmlns:xlink="http://www.w3.org/1999/xlink" width="100%" height="100%" viewBox="0 0 340.000000 250.000000" preserveAspectRatio="xMidYMid meet" color-interpolation-filters="sRGB" style="margin: auto;"> <rect data-v-0dd9719b="" x="0" y="0" width="100%" height="100%" fill="#fff" fill-opacity="1" class="background"></rect> <rect data-v-0dd9719b="" x="0" y="0" width="100%" height="100%" fill="url(#watermark)" fill-opacity="1" class="watermarklayer"></rect> <g data-v-0dd9719b="" fill="#333" class="icon-text-wrapper icon-svg-group iconsvg" transform="translate(48.61000061035156,94.58637428283691)"><g class="iconsvg-imagesvg" transform="translate(0,0)"><g><rect fill="#333" fill-opacity="0" stroke-width="2" x="0" y="0" width="60" height="60.8272506082725" class="image-rect"></rect> <svg x="0" y="0" width="60" height="60.8272506082725" filtersec="colorsb9568705967" class="image-svg-svg primary" style="overflow: visible;"><svg xmlns="http://www.w3.org/2000/svg" viewBox="-0.01667151227593422 -0.0010506667895242572 98.62667083740234 99.98663330078125"><path d="M4.5 70.71a49.73 49.73 0 0 0 13.39 17.61L97.16 46.7z" fill="#2a3d8f"></path><path d="M19.15 89.34a50 50 0 0 0 79.46-27.68z" fill="#272660"></path><path d="M76.66 7.71A50 50 0 0 0 0 51.29l82.29-39.45a51 51 0 0 0-5.63-4.13z" fill="#29aae1"></path><path d="M88 25L.06 52.31A50.25 50.25 0 0 0 4.15 70z" fill="#1f76bb"></path></svg></svg> <!----></g></g> <g transform="translate(67,6.062376022338867)"><g data-gra="path-name" fill-rule="" class="tp-name iconsvg-namesvg" transform="translate(0,0)"><g transform="scale(1)"><g><path d="M21.66-28.97L21.66-28.97Q25.45-28.41 25.59-27.84L25.59-27.84Q25.73-27.56 25.17-27.42L25.17-27.42Q24.75-27.42 24.75-27.28L24.75-27.28Q27.28-19.27 35.02-16.03L35.02-16.03Q33.75-15.05 32.77-13.36L32.77-13.36Q32.48-12.94 32.48-12.94L32.48-12.94Q30.09-14.48 28.27-16.17L28.27-16.17 28.27-13.92Q27.28-14.06 24.89-14.06L24.89-14.06 22.08-14.06Q18.42-14.06 18.42-13.92L18.42-13.92 18.42-15.89Q17.44-14.48 15.61-12.52L15.61-12.52Q14.48-13.92 13.08-14.48L13.08-14.48 13.08-8.44Q13.08-5.06 13.36-2.67L13.36-2.67 9.98-2.67Q9.98-2.81 10.13-3.8L10.13-3.8Q10.27-5.2 10.27-5.63L10.27-5.63 5.91-5.63 6.19-1.55 2.67-1.55Q3.09-3.66 3.09-7.45L3.09-7.45 3.09-19.55Q3.09-22.92 2.81-25.17L2.81-25.17Q3.94-24.89 7.31-24.89L7.31-24.89 8.02-24.89Q11.25-24.89 13.22-25.17L13.22-25.17Q13.08-23.63 13.08-20.53L13.08-20.53 13.08-15.33Q18.84-19.13 21.66-28.97ZM23.34-24.75L23.34-24.75Q20.39-18.42 18.7-16.59L18.7-16.59Q18.7-16.59 21.94-16.45L21.94-16.45 24.61-16.45Q25.73-16.45 27.98-16.59L27.98-16.59Q24.61-20.53 23.34-24.75ZM10.27-8.02L10.27-22.36 5.91-22.36 5.91-8.02 10.27-8.02ZM16.03-10.55L16.03-10.55Q18.28-10.27 21.94-10.27L21.94-10.27 24.75-10.27Q28.55-10.27 30.8-10.55L30.8-10.55Q30.52-8.3 30.52-5.06L30.52-5.06 30.52-1.55Q30.52 1.55 30.94 3.23L30.94 3.23 27.42 3.23Q27.7 1.97 27.7 0.7L27.7 0.7 19.27 0.7Q19.41 3.38 19.41 3.38L19.41 3.38 16.03 3.38Q16.31 1.69 16.31-1.83L16.31-1.83 16.31-5.2Q16.31-9.14 16.03-10.55ZM27.7-7.73L19.13-7.73 19.13-1.55 27.7-1.55 27.7-7.73ZM47.67-29.11L47.67-29.11Q48.94-28.83 50.63-28.13L50.63-28.13Q51.05-27.98 51.33-27.84L51.33-27.84Q52.17-27.42 51.19-26.44L51.19-26.44Q50.34-25.88 50.2-25.45L50.2-25.45Q49.78-24.75 48.8-23.34L48.8-23.34Q48.52-22.78 48.38-22.64L48.38-22.64 62.72-22.64Q63.14-22.64 63.84-22.64L63.84-22.64Q66.23-22.5 68.2-22.78L68.2-22.78Q67.92-21.09 64.69-14.91L64.69-14.91Q63-15.33 61.45-15.47L61.45-15.47Q62.86-17.58 63.98-19.97L63.98-19.97 47.11-19.97Q45.56-17.58 40.92-12.66L40.92-12.66Q39.52-14.06 37.69-14.48L37.69-14.48Q45-19.41 47.67-29.11ZM52.59-18.14L52.59-18.14Q54.56-18.14 55.83-17.72L55.83-17.72Q56.53-17.58 56.25-16.88L56.25-16.88Q55.83-16.03 55.83-15.47L55.83-15.47 55.83-0.14Q56.25 2.95 50.2 3.52L50.2 3.52Q49.92 1.55 48.66 0L48.66 0Q52.88 0.42 52.73-1.27L52.73-1.27 52.73-13.36Q52.73-16.03 52.59-17.86L52.59-17.86Q52.59-18.14 52.59-18.14ZM58.08-10.69L60.75-12.38Q63.84-9.84 69.47-3.38L69.47-3.38 66.23-1.13Q62.86-6.33 58.08-10.69L58.08-10.69ZM45.98-12.38L45.98-12.38Q49.36-11.25 49.78-10.69L49.78-10.69Q49.78-10.55 49.36-10.13L49.36-10.13Q48.52-9.56 48.23-9.14L48.23-9.14Q45.28-4.64 41.63 0L41.63 0Q40.5-1.13 38.53-1.83L38.53-1.83Q43.17-6.89 45.98-12.38ZM91.27-28.55L94.92-29.25Q94.92-29.11 95.34-27.98L95.34-27.98Q95.77-26.16 96.05-25.17L96.05-25.17 101.53-25.17Q102.09-25.17 103.78-25.31L103.78-25.31Q104.34-25.45 104.77-25.45L104.77-25.45Q104.48-24.61 104.48-22.08L104.48-22.08Q104.48-20.11 104.77-18.84L104.77-18.84 101.39-18.84Q101.67-20.81 101.67-22.08L101.67-22.08 101.67-22.64 86.48-22.64Q86.34-20.95 86.77-19.13L86.77-19.13Q93.8-18.84 98.86-20.67L98.86-20.67Q100.69-18.14 100.55-17.72L100.55-17.72Q100.55-17.72 100.13-17.72L100.13-17.72Q99.42-17.86 99-17.72L99-17.72Q98.58-17.72 97.03-17.58L97.03-17.58Q93.09-17.02 89.44-16.88L89.44-16.88 89.44-14.2 99.56-14.2Q100.69-14.2 103.08-14.48L103.08-14.48Q101.39-14.2 103.5-14.48L103.5-14.48 103.5-11.39Q103.08-11.39 102.38-11.53L102.38-11.53Q100.69-11.67 99.7-11.67L99.7-11.67 98.16-11.67 98.16-7.17 102.09-7.17Q104.06-7.17 106.17-7.59L106.17-7.59 106.17-4.22Q106.03-4.22 105.61-4.22L105.61-4.22Q103.78-4.5 102.23-4.5L102.23-4.5 86.34-4.5Q84.23-4.5 81.7-4.22L81.7-4.22 81.7-7.45Q84.23-7.17 86.63-7.17L86.63-7.17 86.63-18.56 83.25-18.56Q83.53-19.97 83.67-22.22L83.67-22.22Q83.67-23.77 83.39-25.45L83.39-25.45Q85.08-25.17 86.63-25.17L86.63-25.17 92.95-25.17Q92.11-27.28 91.27-28.55L91.27-28.55ZM75.52-25.31L77.34-27.7Q80.58-26.02 83.11-23.77L83.11-23.77 81.14-21.23Q78.61-23.63 75.52-25.31L75.52-25.31ZM73.55-17.02L75.38-19.69Q78.89-17.72 81.56-16.03L81.56-16.03 79.59-13.22Q76.92-15.47 73.55-17.02L73.55-17.02ZM95.48-7.17L95.48-11.67 89.44-11.67 89.44-7.17 95.48-7.17ZM78.33-11.67L78.33-11.67Q79.88-10.27 81-9.98L81-9.98Q81-9.7 80.44-7.45L80.44-7.45Q79.03-1.83 78.19 2.39L78.19 2.39Q76.64 1.55 74.81 0.98L74.81 0.98Q77.06-3.94 78.33-11.67ZM89.02-3.8L89.02-3.8Q91.55-2.53 91.97-1.69L91.97-1.69Q91.97-1.69 91.55-1.55L91.55-1.55Q90.7-1.27 90.42-0.98L90.42-0.98Q86.77 1.83 83.67 3.52L83.67 3.52Q82.41 2.11 80.72 1.41L80.72 1.41Q85.36 0.28 89.02-3.8ZM95.48-1.83L97.45-3.8Q100.83-2.39 105.61 0.84L105.61 0.84 103.36 3.38Q100.27 0.56 95.48-1.83L95.48-1.83ZM125.02-29.67L125.02-29.67Q127.83-29.67 128.81-29.25L128.81-29.25Q128.81-29.11 128.53-28.97L128.53-28.97Q127.83-28.41 127.97-27.7L127.97-27.7Q128.11-26.16 128.95-24.89L128.95-24.89Q132.61-26.16 136.55-28.27L136.55-28.27Q139.08-25.59 138.8-25.31L138.8-25.31Q138.66-25.17 137.95-25.17L137.95-25.17Q137.25-25.03 136.97-25.03L136.97-25.03Q136.13-24.89 133.45-23.91L133.45-23.91Q131.48-23.34 130.36-22.92L130.36-22.92Q134.3-18.98 141.61-18.7L141.61-18.7Q139.78-17.3 138.94-15.61L138.94-15.61Q130.78-17.3 127.97-23.06L127.97-23.06 127.97-17.02Q128.95-14.77 123.05-13.92L123.05-13.92Q123.05-15.75 122.06-17.02L122.06-17.02Q124.45-16.59 125.02-17.3L125.02-17.3Q125.16-17.44 125.16-18.7L125.16-18.7 125.16-24.75Q121.92-17.3 114.05-15.05L114.05-15.05Q113.06-16.59 111.23-17.58L111.23-17.58Q118.83-18.98 121.5-23.06L121.5-23.06 119.39-23.06Q113.77-23.06 113.91-22.92L113.91-22.92 113.91-25.73Q114.61-25.45 119.81-25.45L119.81-25.45 125.16-25.45 125.16-27.56Q125.16-29.25 125.02-29.67ZM130.92-16.31L130.92-16.31Q134.02-16.03 134.58-15.75L134.58-15.75Q134.58-15.61 134.3-15.33L134.3-15.33Q133.73-14.77 133.73-14.2L133.73-14.2Q133.88-12.09 135-9.84L135-9.84Q138.09-12.09 139.36-14.06L139.36-14.06Q142.31-11.67 141.89-11.39L141.89-11.39Q141.89-11.39 141.61-11.25L141.61-11.25Q140.91-11.25 140.48-10.97L140.48-10.97Q140.2-10.83 139.22-10.13L139.22-10.13Q137.39-8.86 135.84-7.88L135.84-7.88Q138.52-3.23 143.3-0.98L143.3-0.98Q141.33 0 140.63 1.27L140.63 1.27Q135.28-1.97 133.73-7.88L133.73-7.88 133.73 0.56Q134.72 3.94 128.95 4.08L128.95 4.08Q128.81 2.39 127.55 0.7L127.55 0.7Q130.36 1.13 130.92 0.7L130.92 0.7Q131.34 0.42 131.2-0.98L131.2-0.98Q131.2-1.13 131.2-1.13L131.2-1.13 131.2-9Q129.23-2.39 124.88 1.13L124.88 1.13Q123.61 0 121.78-0.28L121.78-0.28Q127.41-3.66 128.67-8.86L128.67-8.86Q126.28-8.86 125.72-8.72L125.72-8.72 125.72-10.97Q123.89-9.56 122.06-8.16L122.06-8.16Q123.33-7.03 126.28-4.64L126.28-4.64Q125.16-4.08 123.75-2.81L123.75-2.81Q122.34-5.2 120.23-7.17L120.23-7.17 120.23-0.28Q120.94 3.52 115.45 3.52L115.45 3.52Q115.31 1.69 114.05 0.14L114.05 0.14Q116.44 0.7 117.42 0.42L117.42 0.42Q117.84 0.14 117.84-0.7L117.84-0.7 117.84-9.28Q115.31-3.09 111.52 0.14L111.52 0.14Q110.53-0.56 108.7-1.27L108.7-1.27Q112.5-3.52 115.45-8.72L115.45-8.72Q110.53-8.72 110.67-8.58L110.67-8.58 110.67-11.25Q110.25-11.11 115.17-11.11L115.17-11.11 117.84-11.11 117.84-13.22Q117.84-13.78 117.7-14.63L117.7-14.63Q117.7-15.19 117.7-15.47L117.7-15.47Q120.66-15.47 121.08-15.05L121.08-15.05Q121.08-14.91 120.8-14.63L120.8-14.63Q120.23-14.2 120.23-13.64L120.23-13.64 120.23-9.28Q121.64-10.13 124.73-13.64L124.73-13.64Q125.86-12.94 126.98-11.95L126.98-11.95Q126.56-11.53 126-11.25L126-11.25Q126.14-11.11 131.2-11.11L131.2-11.11 131.2-13.64Q131.2-15.19 130.92-16.31ZM151.73-29.25L151.73-29.25Q155.95-29.11 156.09-28.69L156.09-28.69Q156.09-28.55 155.95-28.41L155.95-28.41Q154.83-27.56 153.98-24.33L153.98-24.33 156.52-24.33Q160.31-24.33 161.16-24.47L161.16-24.47 161.16-21.38Q160.17-21.66 156.23-21.66L156.23-21.66 153.28-21.66Q152.86-20.53 152.02-18.56L152.02-18.56Q150.75-15.33 150.05-14.06L150.05-14.06 153.98-14.06 153.98-17.16Q153.98-18.98 153.84-19.55L153.84-19.55Q157.64-19.55 157.64-19.13L157.64-19.13Q157.64-19.13 157.5-18.84L157.5-18.84Q156.52-17.44 156.52-14.06L156.52-14.06 157.64-14.06Q160.17-14.06 160.45-14.2L160.45-14.2 160.45-11.25Q159.89-11.39 157.64-11.39L157.64-11.39 156.52-11.39 156.52-7.31Q158.34-7.59 161.44-8.16L161.44-8.16Q161.02-6.33 161.02-5.34L161.02-5.34Q158.63-5.06 156.52-4.78L156.52-4.78 156.52-0.28Q156.66 2.39 156.94 3.52L156.94 3.52 153.56 3.52Q153.84 2.11 153.84-0.28L153.84-0.28 153.84-4.36Q150.75-4.08 146.95-3.23L146.95-3.23Q146.81-4.64 145.97-6.61L145.97-6.61Q147.8-6.33 153.84-7.03L153.84-7.03 153.84-11.39Q149.06-11.11 146.95-10.41L146.95-10.41Q146.81-12.23 145.83-13.78L145.83-13.78Q147.94-14.06 150.19-21.66L150.19-21.66 149.63-21.66Q146.81-21.66 145.97-21.52L145.97-21.52 145.97-24.47Q147.09-24.33 149.63-24.33L149.63-24.33 151.03-24.33Q151.03-24.47 151.17-24.75L151.17-24.75Q152.02-28.55 151.73-29.25ZM177.75-26.3L177.75-26.3 177.75-22.92Q176.2-23.34 172.97-23.34L172.97-23.34 170.86-23.34 170.86-13.78 174.09-13.78Q177.05-13.78 178.45-14.06L178.45-14.06 178.45-10.69Q177.47-11.11 174.09-11.11L174.09-11.11 170.86-11.11 170.86-0.28Q171 1.97 171.28 3.66L171.28 3.66 167.77 3.66Q168.05 2.81 168.05-0.42L168.05-0.42 168.05-11.11 165.52-11.11Q162.7-11.11 161.44-10.83L161.44-10.83 161.44-14.06Q161.58-14.06 161.86-14.06L161.86-14.06Q163.83-13.78 165.52-13.78L165.52-13.78 168.05-13.78 168.05-23.34 166.64-23.34Q163.97-23.34 162.7-23.06L162.7-23.06 162.7-26.3Q165.23-26.02 167.34-26.02L167.34-26.02 172.83-26.02Q175.64-26.02 177.75-26.3Z" transform="translate(-2.6700000762939453, 29.670000076293945)"></path></g> <!----> <!----> <!----> <!----> <!----> <!----> <!----></g></g> <g data-gra="path-slogan" fill-rule="" class="tp-slogan iconsvg-slogansvg" fill="#333" transform="translate(5,39.75)"><rect x="0" height="1" y="3.9750003814697266" width="24.669998168945312"></rect> <rect height="1" y="3.9750003814697266" width="24.669998168945312" x="141.11000061035156"></rect> <g transform="translate(27.669998168945312,0)"><g transform="scale(1)"><path d="M2.06-5.06L6.56-5.06L6.56-8.58L7.73-8.58L7.73 0L6.56 0L6.56-3.98L2.06-3.98L2.06 0L0.89 0L0.89-8.58L2.06-8.58L2.06-5.06ZM15.19 0L14.34-2.48L10.88-2.48L9.98 0L8.81 0L12.05-8.58L13.36-8.58L16.45 0L15.19 0ZM12.61-7.31L11.25-3.52L13.92-3.52L12.66-7.31L12.61-7.31ZM21.61-3.70L18.80-3.70L18.80 0L17.63 0L17.63-8.58L21.61-8.58Q24.47-8.58 24.47-6.28L24.47-6.28Q24.47-4.88 23.25-4.22L23.25-4.22Q24.28-3.94 24.28-2.58L24.28-2.58L24.38-1.03Q24.33-0.38 24.80-0.19L24.80-0.19L24.80 0L23.34 0Q23.20-0.61 23.16-2.16L23.16-2.16Q23.20-3.70 21.61-3.70L21.61-3.70ZM21.70-7.64L18.80-7.64L18.80-4.69L21.52-4.69Q23.25-4.69 23.25-6.19L23.25-6.19Q23.25-7.64 21.70-7.64L21.70-7.64ZM29.34-7.64L27.28-7.64L27.28-4.97L29.34-4.97Q31.17-4.92 31.13-6.38L31.13-6.38Q31.13-7.64 29.34-7.64L29.34-7.64ZM29.81 0L26.11 0L26.11-8.58L29.91-8.58Q32.20-8.48 32.30-6.42L32.30-6.42Q32.30-5.16 31.17-4.64L31.17-4.64Q32.77-4.08 32.77-2.53L32.77-2.53Q32.63-0.09 29.81 0L29.81 0ZM29.53-3.98L27.28-3.98L27.28-0.98L29.77-0.98Q31.55-1.03 31.59-2.53L31.59-2.53Q31.59-3.98 29.53-3.98L29.53-3.98ZM34.27-8.58L35.44-8.58L35.44 0L34.27 0L34.27-8.58ZM38.81-8.58L43.13-1.64L43.13-8.58L44.25-8.58L44.25 0L42.94 0L38.58-6.94L38.53-6.94L38.53 0L37.41 0L37.41-8.58L38.81-8.58ZM57.61-8.58L57.61 0L56.48 0L56.48-5.06Q56.48-5.77 56.48-7.22L56.48-7.22L54.05 0L52.88 0L50.48-7.22L50.44-7.22Q50.44-6.70 50.48-5.67L50.48-5.67Q50.48-5.16 50.48-5.06L50.48-5.06L50.48 0L49.31 0L49.31-8.58L51-8.58L53.48-1.31L55.92-8.58L57.61-8.58ZM59.48-8.58L60.66-8.58L60.66 0L59.48 0L59.48-8.58ZM68.30 0L67.45-2.48L63.98-2.48L63.09 0L61.92 0L65.16-8.58L66.47-8.58L69.56 0L68.30 0ZM65.72-7.31L64.36-3.52L67.03-3.52L65.77-7.31L65.72-7.31ZM77.39-4.27L77.39-4.27Q77.20-7.64 74.39-7.83L74.39-7.83Q71.53-7.69 71.39-4.27L71.39-4.27Q71.53-0.94 74.39-0.80L74.39-0.80Q77.20-0.98 77.39-4.27ZM78.56-4.27L78.56-4.27Q78.28 0 74.39 0.14L74.39 0.14Q70.45 0 70.17-4.27L70.17-4.27Q70.41-8.72 74.39-8.81L74.39-8.81Q78.28-8.67 78.56-4.27ZM86.67-8.58L83.77-4.41L86.81 0L85.36 0L83.02-3.52L80.67 0L79.27 0L82.36-4.41L79.45-8.58L80.91-8.58L83.06-5.30L85.27-8.58L86.67-8.58ZM93.56-3.19L93.56-8.58L94.73-8.58L94.73-3.05Q94.59 0.05 91.22 0.14L91.22 0.14Q88.08 0.05 87.94-2.86L87.94-2.86L87.94-8.58L89.11-8.58L89.11-3.19Q89.16-0.84 91.27-0.80L91.27-0.80Q93.56-0.84 93.56-3.19L93.56-3.19ZM102.19 0L101.34-2.48L97.88-2.48L96.98 0L95.81 0L99.05-8.58L100.36-8.58L103.45 0L102.19 0ZM99.61-7.31L98.25-3.52L100.92-3.52L99.66-7.31L99.61-7.31ZM105.89-8.58L110.20-1.64L110.20-8.58L111.33-8.58L111.33 0L110.02 0L105.66-6.94L105.61-6.94L105.61 0L104.48 0L104.48-8.58L105.89-8.58Z" transform="translate(-0.890625, 8.8125)"></path></g></g></g></g></g><defs v-gra="od"></defs></svg>